<?xml version="1.0" encoding="UTF-8" standalone="no"?>
<!-- Created with Inkscape (http://www.inkscape.org/) -->
<svg
   xmlns:svg="http://www.w3.org/2000/svg"
   xmlns="http://www.w3.org/2000/svg"
   xmlns:xlink="http://www.w3.org/1999/xlink"
   xmlns:inkscape="http://www.inkscape.org/namespaces/inkscape"
   version="1.0"
   width="1052.3622"
   height="744.09448"
   id="svg2">
  <defs
     id="defs4">
    <linearGradient
       id="linearGradient8321">
      <stop
         style="stop-color:#e9b96e;stop-opacity:1"
         offset="0"
         id="stop8323" />
      <stop
         style="stop-color:#e9b96e;stop-opacity:0"
         offset="1"
         id="stop8325" />
    </linearGradient>
    <linearGradient
       id="linearGradient7344">
      <stop
         style="stop-color:#e9b96e;stop-opacity:1"
         offset="0"
         id="stop7346" />
      <stop
         style="stop-color:#000000;stop-opacity:0"
         offset="1"
         id="stop7348" />
    </linearGradient>
    <filter
       id="filter5370">
      <feGaussianBlur
         id="feGaussianBlur5372"
         stdDeviation="12.978572"
         inkscape:collect="always" />
    </filter>
    <linearGradient
       x1="-203.00714"
       y1="414.80878"
       x2="991.57855"
       y2="49.094479"
       id="linearGradient8327"
       xlink:href="#linearGradient8321"
       gradientUnits="userSpaceOnUse" />
  </defs>
  <g
     id="layer1">
    <path
       d="M 72.7,159.39949 L 72.7,342.99949 L 98.5,342.99949 L 98.5,159.39949 L 72.7,159.39949 M 109.61406,159.39949 L 109.61406,178.89949 L 135.41406,178.89949 L 135.41406,159.39949 L 109.61406,159.39949 M 109.61406,207.39949 L 109.61406,342.99949 L 135.41406,342.99949 L 135.41406,207.39949 L 109.61406,207.39949 M 146.52812,159.39949 L 146.52812,342.99949 L 172.32812,342.99949 L 172.32812,159.39949 L 146.52812,159.39949 M 198.44219,161.79949 L 183.44219,207.39949 L 198.44219,207.39949 L 222.14219,161.79949 L 198.44219,161.79949 M 256.31875,159.39949 L 232.91875,159.39949 L 232.91875,342.99949 L 256.31875,342.99949 L 256.31875,321.69949 C 269.21874,338.79947 288.11877,347.49949 305.81875,347.49949 C 336.41872,347.49949 367.01875,322.59944 367.01875,273.69949 C 367.01875,227.79954 341.81871,203.49949 298.31875,203.49949 C 286.01876,203.49949 271.31874,205.59949 256.31875,209.49949 L 256.31875,159.39949 M 256.31875,287.19949 L 256.31875,228.69949 C 264.41874,225.39949 276.71876,222.39949 289.61875,222.39949 C 314.81872,222.39949 342.71875,234.09953 342.71875,276.39949 C 342.71875,308.79946 319.61873,330.09949 297.71875,330.09949 C 280.61877,330.09949 262.91874,317.19946 256.31875,287.19949 M 377.97344,207.39949 L 377.97344,342.99949 L 403.77344,342.99949 L 403.77344,256.59949 C 405.27344,231.99951 420.27346,222.39949 438.57344,222.39949 C 443.97343,222.39949 450.27344,223.29949 455.67344,224.49949 L 451.47344,204.69949 C 448.17344,204.69949 442.77343,204.09949 439.17344,204.09949 C 426.87345,204.09949 412.77343,207.6995 401.67344,222.39949 L 401.67344,207.39949 L 377.97344,207.39949 M 530.93594,202.59949 C 487.43598,204.99949 464.93594,240.99952 464.93594,275.49949 C 464.93594,311.49945 488.93598,347.49949 535.13594,347.49949 L 537.23594,347.49949 C 580.13589,345.69949 604.43594,313.59945 604.43594,278.79949 L 604.43594,273.69949 C 604.43594,237.39953 578.03589,202.59949 530.93594,202.59949 M 530.93594,220.29949 L 532.43594,220.29949 C 564.23591,220.29949 582.53594,249.09952 582.53594,276.09949 C 582.53594,300.69947 568.43591,325.29949 539.33594,330.09949 C 537.23594,330.09949 534.23594,330.69949 532.43594,330.69949 C 507.83596,330.69949 491.03593,308.19946 487.43594,282.99949 C 487.43594,281.19949 486.83594,279.09949 486.83594,276.99949 C 486.83594,252.99951 499.13597,225.99948 530.93594,220.29949"
       transform="translate(402.85714,322.85715)"
       style="font-size:300px;font-style:normal;font-variant:normal;font-weight:800;font-stretch:normal;text-align:start;line-height:100%;writing-mode:lr-tb;text-anchor:start;fill:#e9b96e;fill-opacity:1;font-family:Eras-Medium"
       id="flowRoot2185" />
    <path
       d="M 15.2775,243.52 L 15.1975,244.08 L 17.3575,244.04 C 18.037499,244.04 17.9975,244.6 17.8775,246.88 C 17.6375,250.32 16.917499,255.12001 16.0375,260.4 L 16.8375,260.4 L 27.5175,247.16 L 27.5975,247.16 L 26.2375,260.4 L 27.0375,260.4 L 35.1575,252.12 C 38.397497,248.88 40.1175,246.64 40.5575,244.32 C 40.8775,242.84 39.997499,242.16 38.9575,242.16 C 38.237501,242.16 37.3575,242.68 37.1575,243.52 C 36.9975,244.36 38.4375,245.52 38.3175,246.12 C 38.2375,246.56 38.1975,246.88 37.9175,247.4 C 36.437501,250.4 31.357498,255.04 29.5175,256.72 L 30.9575,242.4 L 30.1575,242.4 L 19.8775,254.88 L 19.7975,254.88 C 20.477499,251.36 21.0375,245.68 20.7175,242.8 C 20.6775,242.4 20.5575,242.12 20.1975,242.2 L 15.2775,243.52 M 60.67625,242.12 L 57.51625,242.6 L 56.59625,244.72 L 56.51625,244.72 C 56.39625,243.24 55.636249,242.16 54.19625,242.16 C 49.316255,242.16 40.836249,249.52001 39.63625,255.68 C 38.956251,258.96 40.996252,260.44 42.55625,260.44 C 43.756249,260.44 46.956255,260.23999 51.59625,254.76 L 51.67625,254.84 C 50.156252,257.36 49.99625,258.12 49.91625,258.52 C 49.67625,259.88 50.436251,260.44 51.31625,260.44 C 52.036249,260.44 54.036253,260 56.91625,256.6 C 57.27625,256.16 57.43625,255.92 57.51625,255.6 C 57.51625,255.52 57.51625,255.44 57.43625,255.44 C 57.23625,255.44 56.836249,255.76 56.31625,256.4 C 55.076251,257.84 54.276249,258.52 53.39625,258.52 C 53.03625,258.52 52.99625,258.28 53.03625,257.92 C 53.11625,257.6 53.87625,256.28 54.15625,255.64 L 60.67625,242.12 M 54.39625,248.76 C 52.716252,252.32 48.476248,257.48 46.51625,258.08 C 45.036251,258.52 42.59625,258.84 42.91625,256 C 43.476249,251 49.076254,244.44 52.59625,243.32 C 54.356248,242.76 55.55625,243.2 55.51625,244.48 C 55.71625,245.92 54.956249,247.64 54.39625,248.76 M 73.15625,242.64 L 70.23625,242.64 L 71.95625,238.92 C 72.43625,237.92 71.916249,237.84 71.27625,238.44 C 67.476254,242.08 66.956248,242.2 64.91625,242.96 C 64.316251,243.2 63.87625,243.44 63.79625,244.04 L 66.59625,244.04 L 60.47625,256.92 C 58.996251,260.08 60.796252,260.8 62.31625,260.28 C 64.436248,259.56 65.796251,257.96 67.03625,256.6 C 67.796249,255.76 67.876249,255.12 67.15625,255.64 C 66.556251,256.08 65.356249,258 64.11625,258.4 C 62.116252,259.04 63.476251,256.76 63.99625,255.64 L 69.55625,244.04 L 72.87625,244.04 L 73.15625,242.64 M 81.93,257.52 C 80.730001,258.52 76.369999,260.68 75.13,257.48 C 74.73,256.52 74.170002,254.56 76.01,250.96 C 77.969998,247.04 79.930003,244.64 82.65,243.44 C 84.249998,242.72 85.410001,242.64 86.05,242.84 C 86.37,242.96 87.089999,243.24 86.49,244 C 86.05,244.56 85.49,245.76 85.77,246.4 C 86.05,247.04 86.610001,247.28 87.13,247.16 C 87.969999,247 88.65,246.24 88.85,245.8 C 89.29,244.88 88.889999,243.68 88.29,242.96 C 87.690001,242.24 87.169999,242.24 85.93,242.16 C 80.970005,241.84 75.129997,245.64001 72.33,252.32 C 70.410002,257 71.450005,260.2 76.01,260.44 C 76.809999,260.48 78.050002,260.44 80.13,259.44 C 81.449999,258.8 83.410001,257.36 84.05,256.48 C 84.25,256.08 84.169999,255.64 83.65,256.08 L 81.93,257.52 M 102.90438,234.56 C 103.18437,233.92 103.42438,233.28 103.54438,232.64 L 97.544375,233.6 L 97.384375,234.32 C 99.664373,234.32 100.06437,234.36 99.144375,236.32 L 87.904375,260 L 90.864375,260 L 92.544375,256.4 C 94.624373,252.08 101.50438,244.08 104.26438,244.08 C 105.22437,244.08 105.38437,244.88 104.62438,246.32 L 99.544375,256.92 C 98.064376,260.08 99.864377,260.8 101.38438,260.28 C 103.50437,259.56 104.86438,257.96 106.10438,256.6 C 106.86437,255.76 106.94437,255.12 106.22437,255.64 C 105.62438,256.08 104.42437,258 103.18438,258.4 C 101.18438,259.04 102.54438,256.76 103.06437,255.64 C 107.14437,247.44001 107.82438,245.68 107.94438,245 C 108.34437,242.96 107.10437,242.16 106.18438,242.16 C 104.50438,242.16 102.06437,242.72001 95.424375,250.72 L 95.384375,250.6 L 102.90438,234.56 M 118.58437,244.08 C 118.86437,243.44 119.14438,242.8 119.18438,242.16 L 113.18438,243.16 L 113.06437,243.88 C 115.18437,243.88 115.74437,243.8 114.78437,245.88 L 109.50437,256.92 C 108.06438,260.08 109.86438,260.8 111.38438,260.28 C 113.50437,259.56 114.86438,257.96 116.10438,256.6 C 116.86437,255.76 116.94437,255.12 116.22437,255.64 C 115.62438,256.08 114.42437,258 113.18438,258.4 C 111.18438,259.04 112.54438,256.76 113.10438,255.64 L 118.58437,244.08 M 118.62438,235.6 C 118.38438,236.72 119.06438,237.6 120.10438,237.6 C 121.14437,237.6 122.14438,236.72 122.38438,235.6 C 122.62437,234.48 121.94437,233.6 120.90438,233.6 C 119.86438,233.6 118.86437,234.48 118.62438,235.6 M 121.91813,260 L 123.59812,256.4 C 125.67812,252.08 132.55813,244.08 135.31813,244.08 C 136.27812,244.08 136.43812,244.88 135.67812,246.32 L 130.59813,256.92 C 129.11813,260.08 130.91813,260.8 132.43813,260.28 C 134.55812,259.56 135.91813,257.96 137.15813,256.6 C 137.91812,255.76 137.99812,255.12 137.27812,255.64 C 136.67813,256.08 135.47812,258 134.23812,258.4 C 132.23813,259.04 133.59813,256.76 134.11812,255.64 C 138.19812,247.44001 138.87813,245.68 138.99812,245 C 139.39812,242.96 138.15812,242.16 137.23812,242.16 C 135.55813,242.16 133.11812,242.72001 126.47813,250.72 L 126.43812,250.64 L 129.75813,244.08 C 130.03812,243.44 130.31813,242.8 130.35813,242.16 L 124.35813,243.16 L 124.23812,243.88 C 126.35812,243.88 126.91812,243.8 125.95812,245.88 L 118.99813,260 L 121.91813,260 M 160.03813,243.84 L 157.39812,243.68 C 156.91813,243.36 155.07812,241.48 151.79812,242.36 C 147.91813,243.4 145.79812,245.6 144.99812,247.04 C 142.39813,251.72 145.91813,253.2 146.63813,253.68 C 145.75813,254.24 144.03812,255.12 143.11812,256.4 C 142.43813,257.32 142.79813,258.16 143.55812,258.72 L 139.43813,261.16 C 138.63813,261.64 136.83813,263.8 138.11812,266.08 C 139.19812,268.04 140.11813,267.92 141.31813,268.12 C 144.63812,268.68 147.91813,268.2 150.35813,266.48 C 152.19812,265.16 153.79812,261.52 152.71812,260 C 151.91813,258.88 150.07812,258.12 149.27812,257.76 L 146.03813,256.28 C 144.71813,255.68 147.23813,254 147.63813,254 C 148.83812,254.08 149.83813,254.08 151.67812,253.52 C 155.55812,252.36 157.99812,248.8 157.83812,245.4 L 159.87813,245.24 L 160.03813,243.84 M 151.95812,243.24 C 154.27812,242.64 155.03813,243.6 155.03813,244.92 C 155.03813,247.72 152.87812,251.28 151.03813,252.56 C 149.27813,253.8 147.03812,253.4 146.83812,251.84 C 146.55813,249.64 148.95813,244 151.95812,243.24 M 149.35813,261.28 C 150.35812,262.12 150.87812,263.8 149.63813,265.36 C 146.91813,268.84 142.27812,267.48 141.83812,267.28 C 139.23813,266.08 139.31813,263.24 140.79812,261.56 C 141.83812,260.36 142.47813,259.96 144.11812,259 C 146.47812,259.92 148.11813,260.32 149.35813,261.28 M 181.47813,257.12 C 180.59813,257.8 179.43812,258.24 178.39812,258.56 C 177.39813,258.88 175.63812,258.84 174.51812,257.88 C 173.55813,257.04 173.63813,254.8 174.63813,252.56 C 176.83812,252.08 179.31813,251.64 181.91813,250.52 C 184.07812,249.6 185.83813,248.24 187.11812,246.08 C 188.51812,243.68 186.99812,242.16 184.51812,242.16 C 180.19813,242.16 172.99812,247.40001 170.79812,253.56 C 169.71813,256.68 170.59813,259.12 172.07812,259.88 C 174.03812,260.92 175.95813,260.44 176.91813,260.2 C 179.43812,259.6 182.87813,256.84 183.19813,256.52 C 183.59812,256.16 183.47812,255.6 182.95812,256 L 181.47813,257.12 M 175.19813,251.64 C 176.35812,249.28 177.19813,247.84 179.63813,245.44 C 180.63812,244.44 181.91813,243.64 182.79812,243.32 C 184.15812,242.84 185.07812,243.2 184.67812,244.96 C 184.19813,247.2 181.43812,250.6 175.19813,251.64 M 192.3325,260.44 C 197.0525,256.52 202.4525,250.56 204.5725,247.36 C 205.5325,245.92 205.9725,245.08 205.7725,243.44 C 205.6525,242.24 204.6125,242.16 203.9725,242.24 C 202.3725,242.48 202.1325,243.76 202.4525,244.28 L 203.3725,245.88 C 203.8125,246.64 203.4525,247.08 202.9725,247.92 C 201.4925,250.72 197.0125,255.48 195.0525,256.88 C 195.8925,252 196.1325,245.52 195.6925,242.28 L 190.0925,243.4 L 189.9325,244.12 C 191.0525,244 192.7325,243.64 192.9725,245.2 C 193.2125,248.24 192.5725,256.16 191.5325,260.44 L 192.3325,260.44 M 216.94688,257.12 C 216.06688,257.8 214.90687,258.24 213.86687,258.56 C 212.86688,258.88 211.10687,258.84 209.98687,257.88 C 209.02688,257.04 209.10688,254.8 210.10688,252.56 C 212.30687,252.08 214.78688,251.64 217.38688,250.52 C 219.54687,249.6 221.30688,248.24 222.58687,246.08 C 223.98687,243.68 222.46687,242.16 219.98687,242.16 C 215.66688,242.16 208.46687,247.40001 206.26687,253.56 C 205.18688,256.68 206.06688,259.12 207.54688,259.88 C 209.50687,260.92 211.42688,260.44 212.38688,260.2 C 214.90687,259.6 218.34688,256.84 218.66688,256.52 C 219.06687,256.16 218.94687,255.6 218.42687,256 L 216.94688,257.12 M 210.66688,251.64 C 211.82687,249.28 212.66688,247.84 215.10688,245.44 C 216.10687,244.44 217.38688,243.64 218.26687,243.32 C 219.62687,242.84 220.54687,243.2 220.14687,244.96 C 219.66688,247.2 216.90687,250.6 210.66688,251.64 M 225.04125,260 C 228.52125,253.48001 230.00125,249.76 234.76125,245.36 C 235.40125,244.8 235.80125,244.44 236.48125,245 C 236.84125,245.32 237.12125,246.88 238.88125,245.8 C 240.60125,244.76 240.24125,243.4 239.72125,242.68 C 239.28125,242.12 238.16125,241.96 237.00125,242.68 C 235.20125,243.76 232.24125,247.16 229.68125,250.2 L 232.56125,244.08 C 232.84125,243.44 233.12125,242.8 233.16125,242.16 L 227.16125,243.16 L 227.04125,243.88 C 229.16125,243.88 229.72125,243.8 228.92125,245.92 C 227.48125,249.76 224.40125,255.28 222.24125,260 L 225.04125,260 M 237.58812,265.48 C 236.70813,265 235.42812,264.92 234.74812,265.92 C 234.46813,266.32 234.14813,267.16 234.54812,267.8 C 234.90812,268.4 236.30813,268.6 237.46812,268.12 C 239.02812,267.48 241.14813,265.68 241.66813,265.2 C 244.82812,262.36 248.74813,257.59999 253.22813,251.32 C 254.18812,250 256.02813,246.92 256.30813,246.12 C 256.78812,244.88 257.22812,242.76 255.70812,242.28 C 254.22813,241.88 253.50812,242.8 253.18813,243.44 C 252.78813,244.24 253.82813,245.04 254.50813,245.64 C 254.98812,246.08 254.62812,246.88 254.46812,247.4 C 253.34813,250.52 248.90812,255.68 248.10813,256.48 C 248.22812,251.68 248.02812,247.76 247.14812,242.92 C 247.06813,242.4 247.14812,242.2 246.10813,242.36 L 240.86812,243.28 L 240.78813,243.88 C 241.86812,243.76 243.86813,242.8 244.46812,246.12 C 245.02812,249.12 245.82812,254.44001 244.86812,260.6 C 243.14813,262.84 241.14812,264.8 238.94813,266.24 L 237.58812,265.48 M 269.5625,242.64 L 266.6425,242.64 L 268.3625,238.92 C 268.8425,237.92 268.3225,237.84 267.6825,238.44 C 263.8825,242.08 263.3625,242.2 261.3225,242.96 C 260.7225,243.2 260.2825,243.44 260.2025,244.04 L 263.0025,244.04 L 256.8825,256.92 C 255.4025,260.08 257.2025,260.8 258.7225,260.28 C 260.8425,259.56 262.2025,257.96 263.4425,256.6 C 264.2025,255.76 264.2825,255.12 263.5625,255.64 C 262.9625,256.08 261.7625,258 260.5225,258.4 C 258.5225,259.04 259.8825,256.76 260.4025,255.64 L 265.9625,244.04 L 269.2825,244.04 L 269.5625,242.64 M 281.57625,234.56 C 281.85625,233.92 282.09625,233.28 282.21625,232.64 L 276.21625,233.6 L 276.05625,234.32 C 278.33625,234.32 278.73625,234.36 277.81625,236.32 L 266.57625,260 L 269.53625,260 L 271.21625,256.4 C 273.29625,252.08 280.17625,244.08 282.93625,244.08 C 283.89625,244.08 284.05625,244.88 283.29625,246.32 L 278.21625,256.92 C 276.73625,260.08 278.53625,260.8 280.05625,260.28 C 282.17625,259.56 283.53625,257.96 284.77625,256.6 C 285.53625,255.76 285.61625,255.12 284.89625,255.64 C 284.29625,256.08 283.09625,258 281.85625,258.4 C 279.85625,259.04 281.21625,256.76 281.73625,255.64 C 285.81625,247.44001 286.49625,245.68 286.61625,245 C 287.01625,242.96 285.77625,242.16 284.85625,242.16 C 283.17625,242.16 280.73624,242.72001 274.09625,250.72 L 274.05625,250.6 L 281.57625,234.56 M 297.25625,244.08 C 297.53625,243.44 297.81625,242.8 297.85625,242.16 L 291.85625,243.16 L 291.73625,243.88 C 293.85625,243.88 294.41625,243.8 293.45625,245.88 L 288.17625,256.92 C 286.73625,260.08 288.53625,260.8 290.05625,260.28 C 292.17625,259.56 293.53625,257.96 294.77625,256.6 C 295.53625,255.76 295.61625,255.12 294.89625,255.64 C 294.29625,256.08 293.09625,258 291.85625,258.4 C 289.85625,259.04 291.21625,256.76 291.77625,255.64 L 297.25625,244.08 M 297.29625,235.6 C 297.05625,236.72 297.73625,237.6 298.77625,237.6 C 299.81625,237.6 300.81625,236.72 301.05625,235.6 C 301.29625,234.48 300.61625,233.6 299.57625,233.6 C 298.53625,233.6 297.53625,234.48 297.29625,235.6 M 300.59,260 L 302.27,256.4 C 304.35,252.08 311.23,244.08 313.99,244.08 C 314.95,244.08 315.11,244.88 314.35,246.32 L 309.27,256.92 C 307.79,260.08 309.59,260.8 311.11,260.28 C 313.23,259.56 314.59,257.96 315.83,256.6 C 316.59,255.76 316.67,255.12 315.95,255.64 C 315.35,256.08 314.15,258 312.91,258.4 C 310.91,259.04 312.27,256.76 312.79,255.64 C 316.87,247.44001 317.55,245.68 317.67,245 C 318.07,242.96 316.83,242.16 315.91,242.16 C 314.23,242.16 311.78999,242.72001 305.15,250.72 L 305.11,250.64 L 308.43,244.08 C 308.71,243.44 308.99,242.8 309.03,242.16 L 303.03,243.16 L 302.91,243.88 C 305.03,243.88 305.59,243.8 304.63,245.88 L 297.67,260 L 300.59,260 M 338.71,243.84 L 336.07,243.68 C 335.59,243.36 333.75,241.48 330.47,242.36 C 326.59,243.4 324.47,245.6 323.67,247.04 C 321.07,251.72 324.59,253.2 325.31,253.68 C 324.43,254.24 322.71,255.12 321.79,256.4 C 321.11,257.32 321.47,258.16 322.23,258.72 L 318.11,261.16 C 317.31,261.64 315.51,263.8 316.79,266.08 C 317.87,268.04 318.79,267.92 319.99,268.12 C 323.31,268.68 326.59,268.2 329.03,266.48 C 330.87,265.16 332.47,261.52 331.39,260 C 330.59,258.88 328.75,258.12 327.95,257.76 L 324.71,256.28 C 323.39,255.68 325.91,254 326.31,254 C 327.51,254.08 328.51,254.08 330.35,253.52 C 334.23,252.36 336.67,248.8 336.51,245.4 L 338.55,245.24 L 338.71,243.84 M 330.63,243.24 C 332.95,242.64 333.71,243.6 333.71,244.92 C 333.71,247.72 331.55,251.28 329.71,252.56 C 327.95,253.8 325.71,253.4 325.51,251.84 C 325.23,249.64 327.63,244 330.63,243.24 M 328.03,261.28 C 329.03,262.12 329.55,263.8 328.31,265.36 C 325.59,268.84 320.95,267.48 320.51,267.28 C 317.91,266.08 317.99,263.24 319.47,261.56 C 320.51,260.36 321.15,259.96 322.79,259 C 325.15,259.92 326.79,260.32 328.03,261.28 M 338.51,265.04 C 340.07,264.84 342.47,262.48 343.87,260.52 C 344.99,259 345.27,257.16 344.23,256.48 C 343.71,256.16 342.31,256.12 341.59,256.6 C 340.75,257.12 340.07,258.76 340.83,259.44 C 341.83,260.36 341.95,261.32 340.91,262.52 C 340.11,263.48 339.35,264.04 338.71,264.24 C 338.07,264.48 337.79,265.04 338.51,265.04 M 370.15,257.12 C 369.27,257.8 368.11,258.24 367.07,258.56 C 366.07,258.88 364.31,258.84 363.19,257.88 C 362.23,257.04 362.31,254.8 363.31,252.56 C 365.51,252.08 367.99,251.64 370.59,250.52 C 372.75,249.6 374.51,248.24 375.79,246.08 C 377.19,243.68 375.67,242.16 373.19,242.16 C 368.87,242.16 361.67,247.40001 359.47,253.56 C 358.39,256.68 359.27,259.12 360.75,259.88 C 362.71,260.92 364.63,260.44 365.59,260.2 C 368.11,259.6 371.55,256.84 371.87,256.52 C 372.27,256.16 372.15,255.6 371.63,256 L 370.15,257.12 M 363.87,251.64 C 365.03,249.28 365.87,247.84 368.31,245.44 C 369.31,244.44 370.59,243.64 371.47,243.32 C 372.83,242.84 373.75,243.2 373.35,244.96 C 372.87,247.2 370.10999,250.6 363.87,251.64 M 381.00437,260.44 C 385.72437,256.52 391.12438,250.56 393.24437,247.36 C 394.20437,245.92 394.64437,245.08 394.44437,243.44 C 394.32438,242.24 393.28437,242.16 392.64438,242.24 C 391.04438,242.48 390.80438,243.76 391.12437,244.28 L 392.04438,245.88 C 392.48437,246.64 392.12437,247.08 391.64438,247.92 C 390.16438,250.72 385.68437,255.48 383.72438,256.88 C 384.56437,252 384.80437,245.52 384.36437,242.28 L 378.76437,243.4 L 378.60438,244.12 C 379.72437,244 381.40438,243.64 381.64438,245.2 C 381.88437,248.24 381.24437,256.16 380.20438,260.44 L 381.00437,260.44 M 405.61875,257.12 C 404.73875,257.8 403.57875,258.24 402.53875,258.56 C 401.53875,258.88 399.77875,258.84 398.65875,257.88 C 397.69875,257.04 397.77875,254.8 398.77875,252.56 C 400.97875,252.08 403.45875,251.64 406.05875,250.52 C 408.21875,249.6 409.97875,248.24 411.25875,246.08 C 412.65875,243.68 411.13875,242.16 408.65875,242.16 C 404.33875,242.16 397.13875,247.40001 394.93875,253.56 C 393.85875,256.68 394.73875,259.12 396.21875,259.88 C 398.17875,260.92 400.09875,260.44 401.05875,260.2 C 403.57875,259.6 407.01875,256.84 407.33875,256.52 C 407.73875,256.16 407.61875,255.6 407.09875,256 L 405.61875,257.12 M 399.33875,251.64 C 400.49875,249.28 401.33875,247.84 403.77875,245.44 C 404.77875,244.44 406.05875,243.64 406.93875,243.32 C 408.29875,242.84 409.21875,243.2 408.81875,244.96 C 408.33875,247.2 405.57874,250.6 399.33875,251.64 M 413.71312,260 C 417.19312,253.48001 418.67313,249.76 423.43313,245.36 C 424.07312,244.8 424.47313,244.44 425.15312,245 C 425.51312,245.32 425.79313,246.88 427.55313,245.8 C 429.27312,244.76 428.91312,243.4 428.39312,242.68 C 427.95313,242.12 426.83312,241.96 425.67313,242.68 C 423.87313,243.76 420.91312,247.16 418.35312,250.2 L 421.23312,244.08 C 421.51312,243.44 421.79313,242.8 421.83312,242.16 L 415.83312,243.16 L 415.71312,243.88 C 417.83312,243.88 418.39312,243.8 417.59312,245.92 C 416.15313,249.76 413.07312,255.28 410.91312,260 L 413.71312,260 M 426.26,265.48 C 425.38,265 424.1,264.92 423.42,265.92 C 423.14,266.32 422.82,267.16 423.22,267.8 C 423.58,268.4 424.98,268.6 426.14,268.12 C 427.7,267.48 429.82,265.68 430.34,265.2 C 433.5,262.36 437.42,257.59999 441.9,251.32 C 442.86,250 444.7,246.92 444.98,246.12 C 445.46,244.88 445.9,242.76 444.38,242.28 C 442.9,241.88 442.18,242.8 441.86,243.44 C 441.46,244.24 442.5,245.04 443.18,245.64 C 443.66,246.08 443.3,246.88 443.14,247.4 C 442.02,250.52 437.58,255.68 436.78,256.48 C 436.9,251.68 436.7,247.76 435.82,242.92 C 435.74,242.4 435.82,242.2 434.78,242.36 L 429.54,243.28 L 429.46,243.88 C 430.54,243.76 432.54,242.8 433.14,246.12 C 433.7,249.12 434.5,254.44001 433.54,260.6 C 431.82,262.84 429.82,264.8 427.62,266.24 L 426.26,265.48 M 447.07437,243.52 L 446.99437,244.08 L 449.15438,244.04 C 449.83437,244.04 449.79437,244.6 449.67437,246.88 C 449.43438,250.32 448.71437,255.12001 447.83438,260.4 L 448.63437,260.4 L 459.31437,247.16 L 459.39438,247.16 L 458.03438,260.4 L 458.83438,260.4 L 466.95438,252.12 C 470.19437,248.88 471.91438,246.64 472.35438,244.32 C 472.67437,242.84 471.79437,242.16 470.75437,242.16 C 470.03438,242.16 469.15437,242.68 468.95438,243.52 C 468.79438,244.36 470.23437,245.52 470.11437,246.12 C 470.03438,246.56 469.99437,246.88 469.71438,247.4 C 468.23438,250.4 463.15437,255.04 461.31437,256.72 L 462.75437,242.4 L 461.95438,242.4 L 451.67437,254.88 L 451.59438,254.88 C 452.27437,251.36 452.83437,245.68 452.51437,242.8 C 452.47438,242.4 452.35437,242.12 451.99437,242.2 L 447.07437,243.52 M 485.87313,234.56 C 486.15312,233.92 486.39313,233.28 486.51313,232.64 L 480.51313,233.6 L 480.35312,234.32 C 482.63312,234.32 483.03312,234.36 482.11313,236.32 L 470.87313,260 L 473.83312,260 L 475.51313,256.4 C 477.59312,252.08 484.47313,244.08 487.23312,244.08 C 488.19312,244.08 488.35312,244.88 487.59312,246.32 L 482.51313,256.92 C 481.03313,260.08 482.83313,260.8 484.35312,260.28 C 486.47312,259.56 487.83313,257.96 489.07313,256.6 C 489.83312,255.76 489.91312,255.12 489.19313,255.64 C 488.59313,256.08 487.39312,258 486.15312,258.4 C 484.15313,259.04 485.51313,256.76 486.03312,255.64 C 490.11312,247.44001 490.79313,245.68 490.91312,245 C 491.31312,242.96 490.07312,242.16 489.15312,242.16 C 487.47313,242.16 485.03312,242.72001 478.39312,250.72 L 478.35312,250.6 L 485.87313,234.56 M 503.35312,257.12 C 502.47313,257.8 501.31312,258.24 500.27312,258.56 C 499.27313,258.88 497.51312,258.84 496.39312,257.88 C 495.43313,257.04 495.51313,254.8 496.51313,252.56 C 498.71312,252.08 501.19313,251.64 503.79312,250.52 C 505.95312,249.6 507.71313,248.24 508.99313,246.08 C 510.39312,243.68 508.87312,242.16 506.39312,242.16 C 502.07313,242.16 494.87312,247.40001 492.67313,253.56 C 491.59313,256.68 492.47313,259.12 493.95312,259.88 C 495.91312,260.92 497.83313,260.44 498.79312,260.2 C 501.31312,259.6 504.75313,256.84 505.07313,256.52 C 505.47312,256.16 505.35312,255.6 504.83312,256 L 503.35312,257.12 M 497.07313,251.64 C 498.23312,249.28 499.07313,247.84 501.51313,245.44 C 502.51312,244.44 503.79313,243.64 504.67313,243.32 C 506.03312,242.84 506.95312,243.2 506.55313,244.96 C 506.07313,247.2 503.31312,250.6 497.07313,251.64 M 511.4475,260 C 514.9275,253.48001 516.4075,249.76 521.1675,245.36 C 521.8075,244.8 522.2075,244.44 522.8875,245 C 523.2475,245.32 523.5275,246.88 525.2875,245.8 C 527.0075,244.76 526.6475,243.4 526.1275,242.68 C 525.6875,242.12 524.5675,241.96 523.4075,242.68 C 521.6075,243.76 518.6475,247.16 516.0875,250.2 L 518.9675,244.08 C 519.2475,243.44 519.5275,242.8 519.5675,242.16 L 513.5675,243.16 L 513.4475,243.88 C 515.5675,243.88 516.1275,243.8 515.3275,245.92 C 513.8875,249.76 510.8075,255.28 508.6475,260 L 511.4475,260 M 536.63437,257.12 C 535.75438,257.8 534.59437,258.24 533.55438,258.56 C 532.55438,258.88 530.79437,258.84 529.67438,257.88 C 528.71438,257.04 528.79438,254.8 529.79437,252.56 C 531.99437,252.08 534.47438,251.64 537.07438,250.52 C 539.23437,249.6 540.99438,248.24 542.27437,246.08 C 543.67437,243.68 542.15437,242.16 539.67438,242.16 C 535.35438,242.16 528.15437,247.40001 525.95438,253.56 C 524.87438,256.68 525.75438,259.12 527.23438,259.88 C 529.19437,260.92 531.11438,260.44 532.07438,260.2 C 534.59437,259.6 538.03438,256.84 538.35438,256.52 C 538.75437,256.16 538.63437,255.6 538.11437,256 L 536.63437,257.12 M 530.35438,251.64 C 531.51437,249.28 532.35438,247.84 534.79437,245.44 C 535.79437,244.44 537.07438,243.64 537.95438,243.32 C 539.31437,242.84 540.23437,243.2 539.83438,244.96 C 539.35438,247.2 536.59437,250.6 530.35438,251.64"
       transform="translate(461.42856,454.28571)"
       style="font-size:40px;font-style:italic;fill:#e9b96e;fill-opacity:1;font-family:TempoFontItalic"
       id="flowRoot2193" />
    <rect
       width="1055.7142"
       height="442.85715"
       x="-1.4285715"
       y="-1.6198033"
       style="fill:#e9b96e;fill-opacity:1;stroke:none;stroke-width:9;stroke-linecap:butt;stroke-linejoin:miter;stroke-miterlimit:4;stroke-dasharray:none;stroke-opacity:1"
       id="rect2175" />
    <path
       d="M 56.277344,352.73325 L 56.277344,356.13169 C 55.261702,355.61087 54.207016,355.22025 53.113281,354.95981 C 52.019518,354.69941 50.886706,354.5692 49.714844,354.56919 C 47.93098,354.5692 46.589836,354.84264 45.691406,355.3895 C 44.805983,355.93639 44.363275,356.7567 44.363281,357.85044 C 44.363275,358.68378 44.682286,359.34134 45.320312,359.82309 C 45.958326,360.29186 47.240877,360.74107 49.167969,361.17075 L 50.398438,361.44419 C 52.950506,361.99107 54.7604,362.76581 55.828125,363.7684 C 56.908836,364.758 57.4492,366.14471 57.449219,367.92856 C 57.4492,369.95981 56.641909,371.56789 55.027344,372.75278 C 53.425766,373.93767 51.218737,374.53012 48.40625,374.53012 C 47.234366,374.53012 46.010409,374.41293 44.734375,374.17856 C 43.471349,373.95721 42.136715,373.61866 40.730469,373.16294 L 40.730469,369.452 C 42.05859,370.14211 43.367183,370.66294 44.65625,371.0145 C 45.945305,371.35304 47.221346,371.52231 48.484375,371.52231 C 50.177072,371.52231 51.479154,371.23585 52.390625,370.66294 C 53.302069,370.077 53.757797,369.25669 53.757812,368.202 C 53.757797,367.22544 53.425766,366.47674 52.761719,365.9559 C 52.110664,365.43508 50.671863,364.93378 48.445312,364.452 L 47.195312,364.15903 C 44.968744,363.69029 43.360672,362.97414 42.371094,362.01059 C 41.381508,361.03404 40.886716,359.69941 40.886719,358.00669 C 40.886716,355.94941 41.615882,354.36087 43.074219,353.24106 C 44.532546,352.12129 46.602857,351.5614 49.285156,351.56137 C 50.613269,351.5614 51.863268,351.65905 53.035156,351.85434 C 54.207016,352.04968 55.287744,352.34264 56.277344,352.73325 M 81.902344,362.12778 L 81.902344,363.88559 L 65.378906,363.88559 C 65.53515,366.35956 66.277337,368.24758 67.605469,369.54965 C 68.946605,370.83872 70.808582,371.48325 73.191406,371.48325 C 74.571599,371.48325 75.906234,371.31398 77.195312,370.97544 C 78.497377,370.6369 79.786438,370.12908 81.0625,369.452 L 81.0625,372.85044 C 79.773417,373.39731 78.451804,373.81398 77.097656,374.10044 C 75.743473,374.38689 74.369777,374.53012 72.976562,374.53012 C 69.486969,374.53012 66.720045,373.5145 64.675781,371.48325 C 62.644528,369.452 61.628904,366.70461 61.628906,363.24106 C 61.628904,359.66035 62.592445,356.82181 64.519531,354.72544 C 66.459628,352.61608 69.070303,351.5614 72.351562,351.56137 C 75.294255,351.5614 77.618471,352.51191 79.324219,354.41294 C 81.042947,356.30097 81.902321,358.87259 81.902344,362.12778 M 78.308594,361.07309 C 78.282533,359.10696 77.729148,357.53795 76.648438,356.36606 C 75.580713,355.1942 74.161444,354.60827 72.390625,354.60825 C 70.385406,354.60827 68.777334,355.17467 67.566406,356.30747 C 66.368483,357.4403 65.678379,359.03535 65.496094,361.09262 L 78.308594,361.07309 M 103.54297,352.92856 L 103.54297,356.28794 C 102.52733,355.72806 101.50519,355.31139 100.47656,355.03794 C 99.460922,354.7515 98.432277,354.60827 97.390625,354.60825 C 95.059885,354.60827 93.249991,355.35045 91.960938,356.83481 C 90.671868,358.30618 90.027338,360.37649 90.027344,363.04575 C 90.027338,365.71503 90.671868,367.79185 91.960938,369.27622 C 93.249991,370.74757 95.059885,371.48325 97.390625,371.48325 C 98.432277,371.48325 99.460922,371.34653 100.47656,371.07309 C 101.50519,370.78664 102.52733,370.36346 103.54297,369.80356 L 103.54297,373.12387 C 102.54035,373.59262 101.49868,373.94419 100.41797,374.17856 C 99.350245,374.41293 98.210923,374.53012 97,374.53012 C 93.705719,374.53012 91.088535,373.49497 89.148438,371.42465 C 87.20833,369.35435 86.238279,366.56138 86.238281,363.04575 C 86.238279,359.47805 87.214841,356.67207 89.167969,354.62778 C 91.134107,352.58353 93.822907,351.5614 97.234375,351.56137 C 98.341132,351.5614 99.42186,351.67858 100.47656,351.91294 C 101.53123,352.13431 102.55337,352.47285 103.54297,352.92856 M 109.46094,365.3309 L 109.46094,352.08872 L 113.05469,352.08872 L 113.05469,365.19419 C 113.05468,367.2645 113.45833,368.82049 114.26562,369.86215 C 115.07291,370.8908 116.28384,371.40513 117.89844,371.40512 C 119.83853,371.40513 121.36847,370.78664 122.48828,369.54965 C 123.62108,368.31268 124.18748,366.62648 124.1875,364.49106 L 124.1875,352.08872 L 127.78125,352.08872 L 127.78125,373.96372 L 124.1875,373.96372 L 124.1875,370.60434 C 123.31509,371.93247 122.29946,372.92205 121.14062,373.57309 C 119.99478,374.21111 118.66014,374.53012 117.13672,374.53012 C 114.62369,374.53012 112.71614,373.74887 111.41406,372.18637 C 110.11198,370.62388 109.46093,368.33872 109.46094,365.3309 M 147.89844,355.44809 C 147.49478,355.21374 147.05207,355.04446 146.57031,354.94028 C 146.10155,354.82311 145.58072,354.76452 145.00781,354.7645 C 142.97655,354.76452 141.41405,355.42858 140.32031,356.75669 C 139.23958,358.07181 138.69921,359.96633 138.69922,362.44028 L 138.69922,373.96372 L 135.08594,373.96372 L 135.08594,352.08872 L 138.69922,352.08872 L 138.69922,355.48715 C 139.45442,354.15905 140.43749,353.17598 141.64844,352.53794 C 142.85936,351.88692 144.33072,351.5614 146.0625,351.56137 C 146.30988,351.5614 146.58332,351.58093 146.88281,351.61997 C 147.18228,351.64603 147.51431,351.6916 147.87891,351.75669 L 147.89844,355.44809 M 169.55859,362.12778 L 169.55859,363.88559 L 153.03516,363.88559 C 153.1914,366.35956 153.93359,368.24758 155.26172,369.54965 C 156.60286,370.83872 158.46483,371.48325 160.84766,371.48325 C 162.22785,371.48325 163.56248,371.31398 164.85156,370.97544 C 166.15363,370.6369 167.44269,370.12908 168.71875,369.452 L 168.71875,372.85044 C 167.42967,373.39731 166.10805,373.81398 164.75391,374.10044 C 163.39972,374.38689 162.02603,374.53012 160.63281,374.53012 C 157.14322,374.53012 154.37629,373.5145 152.33203,371.48325 C 150.30078,369.452 149.28515,366.70461 149.28516,363.24106 C 149.28515,359.66035 150.24869,356.82181 152.17578,354.72544 C 154.11588,352.61608 156.72655,351.5614 160.00781,351.56137 C 162.9505,351.5614 165.27472,352.51191 166.98047,354.41294 C 168.6992,356.30097 169.55857,358.87259 169.55859,362.12778 M 165.96484,361.07309 C 165.93878,359.10696 165.3854,357.53795 164.30469,356.36606 C 163.23696,355.1942 161.81769,354.60827 160.04688,354.60825 C 158.04166,354.60827 156.43358,355.17467 155.22266,356.30747 C 154.02473,357.4403 153.33463,359.03535 153.15234,361.09262 L 165.96484,361.07309 M 188.69922,357.59653 L 192.82031,357.59653 L 192.82031,362.55747 L 188.69922,362.55747 L 188.69922,357.59653 M 226.33594,355.44809 C 225.93228,355.21374 225.48957,355.04446 225.00781,354.94028 C 224.53905,354.82311 224.01822,354.76452 223.44531,354.7645 C 221.41405,354.76452 219.85155,355.42858 218.75781,356.75669 C 217.67708,358.07181 217.13671,359.96633 217.13672,362.44028 L 217.13672,373.96372 L 213.52344,373.96372 L 213.52344,352.08872 L 217.13672,352.08872 L 217.13672,355.48715 C 217.89192,354.15905 218.87499,353.17598 220.08594,352.53794 C 221.29686,351.88692 222.76822,351.5614 224.5,351.56137 C 224.74738,351.5614 225.02082,351.58093 225.32031,351.61997 C 225.61978,351.64603 225.95181,351.6916 226.31641,351.75669 L 226.33594,355.44809 M 247.99609,362.12778 L 247.99609,363.88559 L 231.47266,363.88559 C 231.6289,366.35956 232.37109,368.24758 233.69922,369.54965 C 235.04036,370.83872 236.90233,371.48325 239.28516,371.48325 C 240.66535,371.48325 241.99998,371.31398 243.28906,370.97544 C 244.59113,370.6369 245.88019,370.12908 247.15625,369.452 L 247.15625,372.85044 C 245.86717,373.39731 244.54555,373.81398 243.19141,374.10044 C 241.83722,374.38689 240.46353,374.53012 239.07031,374.53012 C 235.58072,374.53012 232.81379,373.5145 230.76953,371.48325 C 228.73828,369.452 227.72265,366.70461 227.72266,363.24106 C 227.72265,359.66035 228.68619,356.82181 230.61328,354.72544 C 232.55338,352.61608 235.16405,351.5614 238.44531,351.56137 C 241.388,351.5614 243.71222,352.51191 245.41797,354.41294 C 247.1367,356.30097 247.99607,358.87259 247.99609,362.12778 M 244.40234,361.07309 C 244.37628,359.10696 243.8229,357.53795 242.74219,356.36606 C 241.67446,355.1942 240.25519,354.60827 238.48438,354.60825 C 236.47916,354.60827 234.87108,355.17467 233.66016,356.30747 C 232.46223,357.4403 231.77213,359.03535 231.58984,361.09262 L 244.40234,361.07309 M 253.89453,343.57309 L 257.48828,343.57309 L 257.48828,373.96372 L 253.89453,373.96372 L 253.89453,343.57309 M 264.98828,352.08872 L 268.58203,352.08872 L 268.58203,373.96372 L 264.98828,373.96372 L 264.98828,352.08872 M 264.98828,343.57309 L 268.58203,343.57309 L 268.58203,348.12387 L 264.98828,348.12387 L 264.98828,343.57309 M 286.02344,362.96762 C 283.11978,362.96763 281.10806,363.29966 279.98828,363.96372 C 278.86848,364.62779 278.30859,365.7606 278.30859,367.36215 C 278.30859,368.6382 278.72525,369.65382 279.55859,370.40903 C 280.40494,371.15122 281.55077,371.52231 282.99609,371.52231 C 284.98827,371.52231 286.58332,370.81919 287.78125,369.41294 C 288.99217,367.99367 289.59764,366.11216 289.59766,363.7684 L 289.59766,362.96762 L 286.02344,362.96762 M 293.19141,361.48325 L 293.19141,373.96372 L 289.59766,373.96372 L 289.59766,370.6434 C 288.77733,371.97153 287.75519,372.9546 286.53125,373.59262 C 285.30728,374.21762 283.80988,374.53012 282.03906,374.53012 C 279.79947,374.53012 278.01562,373.90512 276.6875,372.65512 C 275.37239,371.3921 274.71484,369.70591 274.71484,367.59653 C 274.71484,365.1356 275.53515,363.28013 277.17578,362.03012 C 278.82942,360.78014 281.29036,360.15514 284.55859,360.15512 L 289.59766,360.15512 L 289.59766,359.80356 C 289.59764,358.14993 289.05076,356.87389 287.95703,355.97544 C 286.87629,355.064 285.35285,354.60827 283.38672,354.60825 C 282.13671,354.60827 280.91926,354.75801 279.73438,355.05747 C 278.54947,355.35696 277.41015,355.80618 276.31641,356.40512 L 276.31641,353.08481 C 277.63151,352.57702 278.90755,352.19942 280.14453,351.952 C 281.3815,351.6916 282.58593,351.5614 283.75781,351.56137 C 286.92186,351.5614 289.28514,352.38171 290.84766,354.02231 C 292.41014,355.66295 293.19139,358.14993 293.19141,361.48325 M 316.31641,363.04575 C 316.31639,360.40253 315.76951,358.33222 314.67578,356.83481 C 313.59504,355.32441 312.10415,354.5692 310.20312,354.56919 C 308.30207,354.5692 306.80468,355.32441 305.71094,356.83481 C 304.6302,358.33222 304.08984,360.40253 304.08984,363.04575 C 304.08984,365.68899 304.6302,367.76581 305.71094,369.27622 C 306.80468,370.77362 308.30207,371.52231 310.20312,371.52231 C 312.10415,371.52231 313.59504,370.77362 314.67578,369.27622 C 315.76951,367.76581 316.31639,365.68899 316.31641,363.04575 M 304.08984,355.40903 C 304.84504,354.10697 305.79556,353.14342 306.94141,352.5184 C 308.10025,351.88041 309.48046,351.5614 311.08203,351.56137 C 313.73826,351.5614 315.89321,352.61608 317.54688,354.72544 C 319.21352,356.83483 320.04685,359.60826 320.04688,363.04575 C 320.04685,366.48326 319.21352,369.25669 317.54688,371.36606 C 315.89321,373.47544 313.73826,374.53012 311.08203,374.53012 C 309.48046,374.53012 308.10025,374.21762 306.94141,373.59262 C 305.79556,372.9546 304.84504,371.98455 304.08984,370.68247 L 304.08984,373.96372 L 300.47656,373.96372 L 300.47656,343.57309 L 304.08984,343.57309 L 304.08984,355.40903 M 326.00391,343.57309 L 329.59766,343.57309 L 329.59766,373.96372 L 326.00391,373.96372 L 326.00391,343.57309 M 355.80859,362.12778 L 355.80859,363.88559 L 339.28516,363.88559 C 339.4414,366.35956 340.18359,368.24758 341.51172,369.54965 C 342.85286,370.83872 344.71483,371.48325 347.09766,371.48325 C 348.47785,371.48325 349.81248,371.31398 351.10156,370.97544 C 352.40363,370.6369 353.69269,370.12908 354.96875,369.452 L 354.96875,372.85044 C 353.67967,373.39731 352.35805,373.81398 351.00391,374.10044 C 349.64972,374.38689 348.27603,374.53012 346.88281,374.53012 C 343.39322,374.53012 340.62629,373.5145 338.58203,371.48325 C 336.55078,369.452 335.53515,366.70461 335.53516,363.24106 C 335.53515,359.66035 336.49869,356.82181 338.42578,354.72544 C 340.36588,352.61608 342.97655,351.5614 346.25781,351.56137 C 349.2005,351.5614 351.52472,352.51191 353.23047,354.41294 C 354.9492,356.30097 355.80857,358.87259 355.80859,362.12778 M 352.21484,361.07309 C 352.18878,359.10696 351.6354,357.53795 350.55469,356.36606 C 349.48696,355.1942 348.06769,354.60827 346.29688,354.60825 C 344.29166,354.60827 342.68358,355.17467 341.47266,356.30747 C 340.27473,357.4403 339.58463,359.03535 339.40234,361.09262 L 352.21484,361.07309 M 374.94922,357.59653 L 379.07031,357.59653 L 379.07031,362.55747 L 374.94922,362.55747 L 374.94922,357.59653 M 399.91016,352.08872 L 403.50391,352.08872 L 403.50391,373.96372 L 399.91016,373.96372 L 399.91016,352.08872 M 399.91016,343.57309 L 403.50391,343.57309 L 403.50391,348.12387 L 399.91016,348.12387 L 399.91016,343.57309 M 429.1875,360.76059 L 429.1875,373.96372 L 425.59375,373.96372 L 425.59375,360.87778 C 425.59373,358.80748 425.19009,357.258 424.38281,356.22934 C 423.5755,355.20071 422.36457,354.68639 420.75,354.68637 C 418.80988,354.68639 417.27994,355.30488 416.16016,356.54184 C 415.04036,357.77884 414.48046,359.46503 414.48047,361.60044 L 414.48047,373.96372 L 410.86719,373.96372 L 410.86719,352.08872 L 414.48047,352.08872 L 414.48047,355.48715 C 415.33984,354.17207 416.34895,353.189 417.50781,352.53794 C 418.67968,351.88692 420.02733,351.5614 421.55078,351.56137 C 424.06379,351.5614 425.96483,352.34264 427.25391,353.90512 C 428.54295,355.45462 429.18748,357.73977 429.1875,360.76059 M 454.57812,360.76059 L 454.57812,373.96372 L 450.98438,373.96372 L 450.98438,360.87778 C 450.98436,358.80748 450.58071,357.258 449.77344,356.22934 C 448.96613,355.20071 447.75519,354.68639 446.14062,354.68637 C 444.20051,354.68639 442.67056,355.30488 441.55078,356.54184 C 440.43098,357.77884 439.87109,359.46503 439.87109,361.60044 L 439.87109,373.96372 L 436.25781,373.96372 L 436.25781,352.08872 L 439.87109,352.08872 L 439.87109,355.48715 C 440.73046,354.17207 441.73957,353.189 442.89844,352.53794 C 444.0703,351.88692 445.41796,351.5614 446.94141,351.56137 C 449.45441,351.5614 451.35545,352.34264 452.64453,353.90512 C 453.93357,355.45462 454.5781,357.73977 454.57812,360.76059 M 470.26172,354.60825 C 468.33463,354.60827 466.81119,355.36347 465.69141,356.87387 C 464.57161,358.37128 464.01171,360.42857 464.01172,363.04575 C 464.01171,365.66294 464.5651,367.72674 465.67188,369.23715 C 466.79166,370.73455 468.3216,371.48325 470.26172,371.48325 C 472.17577,371.48325 473.69269,370.72804 474.8125,369.21762 C 475.93227,367.70721 476.49217,365.64992 476.49219,363.04575 C 476.49217,360.45462 475.93227,358.40384 474.8125,356.8934 C 473.69269,355.36999 472.17577,354.60827 470.26172,354.60825 M 470.26172,351.56137 C 473.3867,351.5614 475.84113,352.57702 477.625,354.60825 C 479.40883,356.63952 480.30076,359.45201 480.30078,363.04575 C 480.30076,366.62648 479.40883,369.43898 477.625,371.48325 C 475.84113,373.5145 473.3867,374.53012 470.26172,374.53012 C 467.12369,374.53012 464.66275,373.5145 462.87891,371.48325 C 461.10807,369.43898 460.22265,366.62648 460.22266,363.04575 C 460.22265,359.45201 461.10807,356.63952 462.87891,354.60825 C 464.66275,352.57702 467.12369,351.5614 470.26172,351.56137 M 483.66016,352.08872 L 487.46875,352.08872 L 494.30469,370.44809 L 501.14062,352.08872 L 504.94922,352.08872 L 496.74609,373.96372 L 491.86328,373.96372 L 483.66016,352.08872 M 519.85156,362.96762 C 516.94791,362.96763 514.93619,363.29966 513.81641,363.96372 C 512.69661,364.62779 512.13671,365.7606 512.13672,367.36215 C 512.13671,368.6382 512.55338,369.65382 513.38672,370.40903 C 514.23306,371.15122 515.3789,371.52231 516.82422,371.52231 C 518.81639,371.52231 520.41144,370.81919 521.60938,369.41294 C 522.8203,367.99367 523.42576,366.11216 523.42578,363.7684 L 523.42578,362.96762 L 519.85156,362.96762 M 527.01953,361.48325 L 527.01953,373.96372 L 523.42578,373.96372 L 523.42578,370.6434 C 522.60545,371.97153 521.58332,372.9546 520.35938,373.59262 C 519.1354,374.21762 517.63801,374.53012 515.86719,374.53012 C 513.6276,374.53012 511.84374,373.90512 510.51562,372.65512 C 509.20052,371.3921 508.54297,369.70591 508.54297,367.59653 C 508.54297,365.1356 509.36328,363.28013 511.00391,362.03012 C 512.65755,360.78014 515.11848,360.15514 518.38672,360.15512 L 523.42578,360.15512 L 523.42578,359.80356 C 523.42576,358.14993 522.87889,356.87389 521.78516,355.97544 C 520.70441,355.064 519.18098,354.60827 517.21484,354.60825 C 515.96483,354.60827 514.74739,354.75801 513.5625,355.05747 C 512.3776,355.35696 511.23828,355.80618 510.14453,356.40512 L 510.14453,353.08481 C 511.45963,352.57702 512.73567,352.19942 513.97266,351.952 C 515.20963,351.6916 516.41405,351.5614 517.58594,351.56137 C 520.74999,351.5614 523.11326,352.38171 524.67578,354.02231 C 526.23826,355.66295 527.01951,358.14993 527.01953,361.48325 M 537.99609,345.87778 L 537.99609,352.08872 L 545.39844,352.08872 L 545.39844,354.88169 L 537.99609,354.88169 L 537.99609,366.75669 C 537.99609,368.54054 538.23697,369.68638 538.71875,370.19419 C 539.21353,370.702 540.20963,370.95591 541.70703,370.9559 L 545.39844,370.9559 L 545.39844,373.96372 L 541.70703,373.96372 C 538.93359,373.96372 537.01952,373.44939 535.96484,372.42075 C 534.91015,371.37908 534.38281,369.49106 534.38281,366.75669 L 534.38281,354.88169 L 531.74609,354.88169 L 531.74609,352.08872 L 534.38281,352.08872 L 534.38281,345.87778 L 537.99609,345.87778 M 550.14453,352.08872 L 553.73828,352.08872 L 553.73828,373.96372 L 550.14453,373.96372 L 550.14453,352.08872 M 550.14453,343.57309 L 553.73828,343.57309 L 553.73828,348.12387 L 550.14453,348.12387 L 550.14453,343.57309 M 558.66016,352.08872 L 562.46875,352.08872 L 569.30469,370.44809 L 576.14062,352.08872 L 579.94922,352.08872 L 571.74609,373.96372 L 566.86328,373.96372 L 558.66016,352.08872 M 603.62109,362.12778 L 603.62109,363.88559 L 587.09766,363.88559 C 587.2539,366.35956 587.99609,368.24758 589.32422,369.54965 C 590.66536,370.83872 592.52733,371.48325 594.91016,371.48325 C 596.29035,371.48325 597.62498,371.31398 598.91406,370.97544 C 600.21613,370.6369 601.50519,370.12908 602.78125,369.452 L 602.78125,372.85044 C 601.49217,373.39731 600.17055,373.81398 598.81641,374.10044 C 597.46222,374.38689 596.08853,374.53012 594.69531,374.53012 C 591.20572,374.53012 588.43879,373.5145 586.39453,371.48325 C 584.36328,369.452 583.34765,366.70461 583.34766,363.24106 C 583.34765,359.66035 584.31119,356.82181 586.23828,354.72544 C 588.17838,352.61608 590.78905,351.5614 594.07031,351.56137 C 597.013,351.5614 599.33722,352.51191 601.04297,354.41294 C 602.7617,356.30097 603.62107,358.87259 603.62109,362.12778 M 600.02734,361.07309 C 600.00128,359.10696 599.4479,357.53795 598.36719,356.36606 C 597.29946,355.1942 595.88019,354.60827 594.10938,354.60825 C 592.10416,354.60827 590.49608,355.17467 589.28516,356.30747 C 588.08723,357.4403 587.39713,359.03535 587.21484,361.09262 L 600.02734,361.07309 M 622.76172,357.59653 L 626.88281,357.59653 L 626.88281,362.55747 L 622.76172,362.55747 L 622.76172,357.59653 M 664.75391,356.28794 C 665.65232,354.67337 666.72654,353.48197 667.97656,352.71372 C 669.22654,351.94551 670.69789,351.5614 672.39062,351.56137 C 674.66924,351.5614 676.42705,352.36218 677.66406,353.96372 C 678.90101,355.55228 679.5195,357.8179 679.51953,360.76059 L 679.51953,373.96372 L 675.90625,373.96372 L 675.90625,360.87778 C 675.90622,358.78144 675.53512,357.22545 674.79297,356.20981 C 674.05075,355.1942 672.91794,354.68639 671.39453,354.68637 C 669.53253,354.68639 668.06117,355.30488 666.98047,356.54184 C 665.89972,357.77884 665.35935,359.46503 665.35938,361.60044 L 665.35938,373.96372 L 661.74609,373.96372 L 661.74609,360.87778 C 661.74608,358.76842 661.37498,357.21243 660.63281,356.20981 C 659.89061,355.1942 658.74478,354.68639 657.19531,354.68637 C 655.35936,354.68639 653.90103,355.31139 652.82031,356.56137 C 651.73958,357.79837 651.19921,359.47805 651.19922,361.60044 L 651.19922,373.96372 L 647.58594,373.96372 L 647.58594,352.08872 L 651.19922,352.08872 L 651.19922,355.48715 C 652.01952,354.14603 653.0026,353.15645 654.14844,352.5184 C 655.29426,351.88041 656.65494,351.5614 658.23047,351.56137 C 659.81899,351.5614 661.16665,351.96504 662.27344,352.77231 C 663.39321,353.57962 664.22003,354.7515 664.75391,356.28794 M 695.18359,354.60825 C 693.2565,354.60827 691.73306,355.36347 690.61328,356.87387 C 689.49348,358.37128 688.93359,360.42857 688.93359,363.04575 C 688.93359,365.66294 689.48697,367.72674 690.59375,369.23715 C 691.71353,370.73455 693.24348,371.48325 695.18359,371.48325 C 697.09764,371.48325 698.61457,370.72804 699.73438,369.21762 C 700.85415,367.70721 701.41404,365.64992 701.41406,363.04575 C 701.41404,360.45462 700.85415,358.40384 699.73438,356.8934 C 698.61457,355.36999 697.09764,354.60827 695.18359,354.60825 M 695.18359,351.56137 C 698.30858,351.5614 700.763,352.57702 702.54688,354.60825 C 704.33071,356.63952 705.22263,359.45201 705.22266,363.04575 C 705.22263,366.62648 704.33071,369.43898 702.54688,371.48325 C 700.763,373.5145 698.30858,374.53012 695.18359,374.53012 C 692.04556,374.53012 689.58463,373.5145 687.80078,371.48325 C 686.02994,369.43898 685.14453,366.62648 685.14453,363.04575 C 685.14453,359.45201 686.02994,356.63952 687.80078,354.60825 C 689.58463,352.57702 692.04556,351.5614 695.18359,351.56137 M 725.55469,355.40903 L 725.55469,343.57309 L 729.14844,343.57309 L 729.14844,373.96372 L 725.55469,373.96372 L 725.55469,370.68247 C 724.79946,371.98455 723.84243,372.9546 722.68359,373.59262 C 721.53775,374.21762 720.15754,374.53012 718.54297,374.53012 C 715.89973,374.53012 713.74479,373.47544 712.07812,371.36606 C 710.42448,369.25669 709.59765,366.48326 709.59766,363.04575 C 709.59765,359.60826 710.42448,356.83483 712.07812,354.72544 C 713.74479,352.61608 715.89973,351.5614 718.54297,351.56137 C 720.15754,351.5614 721.53775,351.88041 722.68359,352.5184 C 723.84243,353.14342 724.79946,354.10697 725.55469,355.40903 M 713.30859,363.04575 C 713.30859,365.68899 713.84895,367.76581 714.92969,369.27622 C 716.02343,370.77362 717.52082,371.52231 719.42188,371.52231 C 721.3229,371.52231 722.8203,370.77362 723.91406,369.27622 C 725.00779,367.76581 725.55467,365.68899 725.55469,363.04575 C 725.55467,360.40253 725.00779,358.33222 723.91406,356.83481 C 722.8203,355.32441 721.3229,354.5692 719.42188,354.56919 C 717.52082,354.5692 716.02343,355.32441 714.92969,356.83481 C 713.84895,358.33222 713.30859,360.40253 713.30859,363.04575 M 736.17969,365.3309 L 736.17969,352.08872 L 739.77344,352.08872 L 739.77344,365.19419 C 739.77343,367.2645 740.17708,368.82049 740.98438,369.86215 C 741.79166,370.8908 743.00259,371.40513 744.61719,371.40512 C 746.55728,371.40513 748.08722,370.78664 749.20703,369.54965 C 750.33983,368.31268 750.90623,366.62648 750.90625,364.49106 L 750.90625,352.08872 L 754.5,352.08872 L 754.5,373.96372 L 750.90625,373.96372 L 750.90625,370.60434 C 750.03384,371.93247 749.01821,372.92205 747.85938,373.57309 C 746.71353,374.21111 745.37889,374.53012 743.85547,374.53012 C 741.34244,374.53012 739.43489,373.74887 738.13281,372.18637 C 736.83073,370.62388 736.17968,368.33872 736.17969,365.3309 M 761.94141,343.57309 L 765.53516,343.57309 L 765.53516,373.96372 L 761.94141,373.96372 L 761.94141,343.57309 M 782.97656,362.96762 C 780.07291,362.96763 778.06119,363.29966 776.94141,363.96372 C 775.82161,364.62779 775.26171,365.7606 775.26172,367.36215 C 775.26171,368.6382 775.67838,369.65382 776.51172,370.40903 C 777.35806,371.15122 778.5039,371.52231 779.94922,371.52231 C 781.94139,371.52231 783.53644,370.81919 784.73438,369.41294 C 785.9453,367.99367 786.55076,366.11216 786.55078,363.7684 L 786.55078,362.96762 L 782.97656,362.96762 M 790.14453,361.48325 L 790.14453,373.96372 L 786.55078,373.96372 L 786.55078,370.6434 C 785.73045,371.97153 784.70832,372.9546 783.48438,373.59262 C 782.2604,374.21762 780.76301,374.53012 778.99219,374.53012 C 776.7526,374.53012 774.96874,373.90512 773.64062,372.65512 C 772.32552,371.3921 771.66797,369.70591 771.66797,367.59653 C 771.66797,365.1356 772.48828,363.28013 774.12891,362.03012 C 775.78255,360.78014 778.24348,360.15514 781.51172,360.15512 L 786.55078,360.15512 L 786.55078,359.80356 C 786.55076,358.14993 786.00389,356.87389 784.91016,355.97544 C 783.82941,355.064 782.30598,354.60827 780.33984,354.60825 C 779.08983,354.60827 777.87239,354.75801 776.6875,355.05747 C 775.5026,355.35696 774.36328,355.80618 773.26953,356.40512 L 773.26953,353.08481 C 774.58463,352.57702 775.86067,352.19942 777.09766,351.952 C 778.33463,351.6916 779.53905,351.5614 780.71094,351.56137 C 783.87499,351.5614 786.23826,352.38171 787.80078,354.02231 C 789.36326,355.66295 790.14451,358.14993 790.14453,361.48325 M 810.24219,355.44809 C 809.83853,355.21374 809.39582,355.04446 808.91406,354.94028 C 808.4453,354.82311 807.92447,354.76452 807.35156,354.7645 C 805.3203,354.76452 803.7578,355.42858 802.66406,356.75669 C 801.58333,358.07181 801.04296,359.96633 801.04297,362.44028 L 801.04297,373.96372 L 797.42969,373.96372 L 797.42969,352.08872 L 801.04297,352.08872 L 801.04297,355.48715 C 801.79817,354.15905 802.78124,353.17598 803.99219,352.53794 C 805.20311,351.88692 806.67447,351.5614 808.40625,351.56137 C 808.65363,351.5614 808.92707,351.58093 809.22656,351.61997 C 809.52603,351.64603 809.85806,351.6916 810.22266,351.75669 L 810.24219,355.44809 M 827.29297,357.59653 L 831.41406,357.59653 L 831.41406,362.55747 L 827.29297,362.55747 L 827.29297,357.59653 M 867.99609,352.92856 L 867.99609,356.28794 C 866.98045,355.72806 865.95832,355.31139 864.92969,355.03794 C 863.91405,354.7515 862.8854,354.60827 861.84375,354.60825 C 859.51301,354.60827 857.70312,355.35045 856.41406,356.83481 C 855.12499,358.30618 854.48046,360.37649 854.48047,363.04575 C 854.48046,365.71503 855.12499,367.79185 856.41406,369.27622 C 857.70312,370.74757 859.51301,371.48325 861.84375,371.48325 C 862.8854,371.48325 863.91405,371.34653 864.92969,371.07309 C 865.95832,370.78664 866.98045,370.36346 867.99609,369.80356 L 867.99609,373.12387 C 866.99347,373.59262 865.95181,373.94419 864.87109,374.17856 C 863.80337,374.41293 862.66405,374.53012 861.45312,374.53012 C 858.15884,374.53012 855.54166,373.49497 853.60156,371.42465 C 851.66146,369.35435 850.6914,366.56138 850.69141,363.04575 C 850.6914,359.47805 851.66797,356.67207 853.62109,354.62778 C 855.58723,352.58353 858.27603,351.5614 861.6875,351.56137 C 862.79426,351.5614 863.87498,351.67858 864.92969,351.91294 C 865.98436,352.13431 867.00649,352.47285 867.99609,352.92856 M 892.46875,360.76059 L 892.46875,373.96372 L 888.875,373.96372 L 888.875,360.87778 C 888.87498,358.80748 888.47134,357.258 887.66406,356.22934 C 886.85675,355.20071 885.64582,354.68639 884.03125,354.68637 C 882.09113,354.68639 880.56119,355.30488 879.44141,356.54184 C 878.32161,357.77884 877.76171,359.46503 877.76172,361.60044 L 877.76172,373.96372 L 874.14844,373.96372 L 874.14844,343.57309 L 877.76172,343.57309 L 877.76172,355.48715 C 878.62109,354.17207 879.6302,353.189 880.78906,352.53794 C 881.96093,351.88692 883.30858,351.5614 884.83203,351.56137 C 887.34504,351.5614 889.24608,352.34264 890.53516,353.90512 C 891.8242,355.45462 892.46873,357.73977 892.46875,360.76059 M 918.38672,362.12778 L 918.38672,363.88559 L 901.86328,363.88559 C 902.01953,366.35956 902.76171,368.24758 904.08984,369.54965 C 905.43098,370.83872 907.29296,371.48325 909.67578,371.48325 C 911.05597,371.48325 912.39061,371.31398 913.67969,370.97544 C 914.98175,370.6369 916.27081,370.12908 917.54688,369.452 L 917.54688,372.85044 C 916.25779,373.39731 914.93618,373.81398 913.58203,374.10044 C 912.22785,374.38689 910.85415,374.53012 909.46094,374.53012 C 905.97134,374.53012 903.20442,373.5145 901.16016,371.48325 C 899.1289,369.452 898.11328,366.70461 898.11328,363.24106 C 898.11328,359.66035 899.07682,356.82181 901.00391,354.72544 C 902.944,352.61608 905.55468,351.5614 908.83594,351.56137 C 911.77863,351.5614 914.10285,352.51191 915.80859,354.41294 C 917.52732,356.30097 918.3867,358.87259 918.38672,362.12778 M 914.79297,361.07309 C 914.76691,359.10696 914.21352,357.53795 913.13281,356.36606 C 912.06509,355.1942 910.64582,354.60827 908.875,354.60825 C 906.86978,354.60827 905.26171,355.17467 904.05078,356.30747 C 902.85286,357.4403 902.16275,359.03535 901.98047,361.09262 L 914.79297,361.07309 M 934.22656,362.96762 C 931.32291,362.96763 929.31119,363.29966 928.19141,363.96372 C 927.07161,364.62779 926.51171,365.7606 926.51172,367.36215 C 926.51171,368.6382 926.92838,369.65382 927.76172,370.40903 C 928.60806,371.15122 929.7539,371.52231 931.19922,371.52231 C 933.19139,371.52231 934.78644,370.81919 935.98438,369.41294 C 937.1953,367.99367 937.80076,366.11216 937.80078,363.7684 L 937.80078,362.96762 L 934.22656,362.96762 M 941.39453,361.48325 L 941.39453,373.96372 L 937.80078,373.96372 L 937.80078,370.6434 C 936.98045,371.97153 935.95832,372.9546 934.73438,373.59262 C 933.5104,374.21762 932.01301,374.53012 930.24219,374.53012 C 928.0026,374.53012 926.21874,373.90512 924.89062,372.65512 C 923.57552,371.3921 922.91797,369.70591 922.91797,367.59653 C 922.91797,365.1356 923.73828,363.28013 925.37891,362.03012 C 927.03255,360.78014 929.49348,360.15514 932.76172,360.15512 L 937.80078,360.15512 L 937.80078,359.80356 C 937.80076,358.14993 937.25389,356.87389 936.16016,355.97544 C 935.07941,355.064 933.55598,354.60827 931.58984,354.60825 C 930.33983,354.60827 929.12239,354.75801 927.9375,355.05747 C 926.7526,355.35696 925.61328,355.80618 924.51953,356.40512 L 924.51953,353.08481 C 925.83463,352.57702 927.11067,352.19942 928.34766,351.952 C 929.58463,351.6916 930.78905,351.5614 931.96094,351.56137 C 935.12499,351.5614 937.48826,352.38171 939.05078,354.02231 C 940.61326,355.66295 941.39451,358.14993 941.39453,361.48325 M 952.29297,370.68247 L 952.29297,382.28403 L 948.67969,382.28403 L 948.67969,352.08872 L 952.29297,352.08872 L 952.29297,355.40903 C 953.04817,354.10697 953.99869,353.14342 955.14453,352.5184 C 956.30337,351.88041 957.68358,351.5614 959.28516,351.56137 C 961.94139,351.5614 964.09634,352.61608 965.75,354.72544 C 967.41664,356.83483 968.24998,359.60826 968.25,363.04575 C 968.24998,366.48326 967.41664,369.25669 965.75,371.36606 C 964.09634,373.47544 961.94139,374.53012 959.28516,374.53012 C 957.68358,374.53012 956.30337,374.21762 955.14453,373.59262 C 953.99869,372.9546 953.04817,371.98455 952.29297,370.68247 M 964.51953,363.04575 C 964.51951,360.40253 963.97264,358.33222 962.87891,356.83481 C 961.79816,355.32441 960.30728,354.5692 958.40625,354.56919 C 956.5052,354.5692 955.0078,355.32441 953.91406,356.83481 C 952.83333,358.33222 952.29296,360.40253 952.29297,363.04575 C 952.29296,365.68899 952.83333,367.76581 953.91406,369.27622 C 955.0078,370.77362 956.5052,371.52231 958.40625,371.52231 C 960.30728,371.52231 961.79816,370.77362 962.87891,369.27622 C 963.97264,367.76581 964.51951,365.68899 964.51953,363.04575"
       transform="translate(11.428571,50)"
       style="font-size:40px;fill:#ffffff;fill-opacity:1"
       id="flowRoot2177" />
    <g
       id="g6343">
      <g
         transform="matrix(0.9106145,4.4360973e-8,-4.4360973e-8,0.9106145,32.982867,32.28535)"
         style="opacity:0.35;stroke:#000000;stroke-opacity:1;display:inline;filter:url(#filter5370)"
         id="g4365">
        <path
           d="M 134.28571,325.52305 L 294.28571,232.66591 L 387.14286,324.09448 L 661.42857,352.66591 L 847.14286,272.66591 L 714.28571,162.66591 L 982.85714,34.094483 L 505.71429,59.808768 L 550,246.95163 L 248.57143,128.3802 L 134.28571,325.52305 z "
           style="fill:none;fill-rule:evenodd;stroke:#000000;stroke-width:15;stroke-linecap:butt;stroke-linejoin:bevel;stroke-miterlimit:4;stroke-dasharray:none;stroke-opacity:1"
           id="path4367" />
        <path
           d="M 248.57143,131.23734 L 294.28571,234.09448"
           style="fill:none;fill-rule:evenodd;stroke:#000000;stroke-width:15;stroke-linecap:butt;stroke-linejoin:miter;stroke-miterlimit:4;stroke-dasharray:none;stroke-opacity:1"
           id="path4369" />
        <path
           d="M 387.14286,325.52305 L 547.14286,244.09448 L 657.14286,349.80877 L 715.71429,164.09448 L 508.57143,64.094482"
           style="fill:none;fill-rule:evenodd;stroke:#000000;stroke-width:15;stroke-linecap:butt;stroke-linejoin:bevel;stroke-miterlimit:4;stroke-dasharray:none;stroke-opacity:1"
           id="path4371" />
        <path
           d="M 158.57142 337.66592 A 27.857143 27.857143 0 1 1  102.85714,337.66592 A 27.857143 27.857143 0 1 1  158.57142 337.66592 z"
           transform="translate(4.2857143,-18.571429)"
           style="fill:#e9b96e;fill-opacity:1;stroke:#000000;stroke-width:15;stroke-linecap:butt;stroke-linejoin:bevel;stroke-miterlimit:4;stroke-dasharray:none;stroke-opacity:1"
           id="path4373" />
        <path
           d="M 158.57142 337.66592 A 27.857143 27.857143 0 1 1  102.85714,337.66592 A 27.857143 27.857143 0 1 1  158.57142 337.66592 z"
           transform="translate(380.71429,-273.57144)"
           style="fill:#e9b96e;fill-opacity:1;stroke:#000000;stroke-width:15;stroke-linecap:butt;stroke-linejoin:bevel;stroke-miterlimit:4;stroke-dasharray:none;stroke-opacity:1"
           id="path4375" />
        <path
           d="M 158.57142 337.66592 A 27.857143 27.857143 0 1 1  102.85714,337.66592 A 27.857143 27.857143 0 1 1  158.57142 337.66592 z"
           transform="translate(579.28572,-176.42858)"
           style="fill:#e9b96e;fill-opacity:1;stroke:#000000;stroke-width:15;stroke-linecap:butt;stroke-linejoin:bevel;stroke-miterlimit:4;stroke-dasharray:none;stroke-opacity:1"
           id="path4377" />
        <path
           d="M 158.57142 337.66592 A 27.857143 27.857143 0 1 1  102.85714,337.66592 A 27.857143 27.857143 0 1 1  158.57142 337.66592 z"
           transform="translate(410.71429,-96.428584)"
           style="fill:#e9b96e;fill-opacity:1;stroke:#000000;stroke-width:15;stroke-linecap:butt;stroke-linejoin:bevel;stroke-miterlimit:4;stroke-dasharray:none;stroke-opacity:1"
           id="path4379" />
        <path
           d="M 158.57142 337.66592 A 27.857143 27.857143 0 1 1  102.85714,337.66592 A 27.857143 27.857143 0 1 1  158.57142 337.66592 z"
           transform="translate(252.14286,-13.571442)"
           style="fill:#e9b96e;fill-opacity:1;stroke:#000000;stroke-width:15;stroke-linecap:butt;stroke-linejoin:bevel;stroke-miterlimit:4;stroke-dasharray:none;stroke-opacity:1"
           id="path4381" />
        <path
           d="M 158.57142 337.66592 A 27.857143 27.857143 0 1 1  102.85714,337.66592 A 27.857143 27.857143 0 1 1  158.57142 337.66592 z"
           transform="translate(162.14286,-102.14287)"
           style="fill:#e9b96e;fill-opacity:1;stroke:#000000;stroke-width:15;stroke-linecap:butt;stroke-linejoin:bevel;stroke-miterlimit:4;stroke-dasharray:none;stroke-opacity:1"
           id="path4383" />
        <path
           d="M 158.57142 337.66592 A 27.857143 27.857143 0 1 1  102.85714,337.66592 A 27.857143 27.857143 0 1 1  158.57142 337.66592 z"
           transform="translate(117.85715,-206.42858)"
           style="fill:#e9b96e;fill-opacity:1;stroke:#000000;stroke-width:15;stroke-linecap:butt;stroke-linejoin:bevel;stroke-miterlimit:4;stroke-dasharray:none;stroke-opacity:1"
           id="path4385" />
        <path
           d="M 158.57142 337.66592 A 27.857143 27.857143 0 1 1  102.85714,337.66592 A 27.857143 27.857143 0 1 1  158.57142 337.66592 z"
           transform="translate(847.85715,-300.7143)"
           style="fill:#e9b96e;fill-opacity:1;stroke:#000000;stroke-width:15;stroke-linecap:butt;stroke-linejoin:bevel;stroke-miterlimit:4;stroke-dasharray:none;stroke-opacity:1"
           id="path4387" />
        <path
           d="M 158.57142 337.66592 A 27.857143 27.857143 0 1 1  102.85714,337.66592 A 27.857143 27.857143 0 1 1  158.57142 337.66592 z"
           transform="translate(714.99997,-67.857153)"
           style="fill:#e9b96e;fill-opacity:1;stroke:#000000;stroke-width:15;stroke-linecap:butt;stroke-linejoin:bevel;stroke-miterlimit:4;stroke-dasharray:none;stroke-opacity:1"
           id="path4389" />
        <path
           d="M 158.57142 337.66592 A 27.857143 27.857143 0 1 1  102.85714,337.66592 A 27.857143 27.857143 0 1 1  158.57142 337.66592 z"
           transform="translate(525.00001,12.142844)"
           style="fill:#e9b96e;fill-opacity:1;stroke:#000000;stroke-width:15;stroke-linecap:butt;stroke-linejoin:bevel;stroke-miterlimit:4;stroke-dasharray:none;stroke-opacity:1"
           id="path4391" />
      </g>
      <g
         transform="matrix(0.9106145,4.4360973e-8,-4.4360973e-8,0.9106145,32.380966,20.092634)"
         style="opacity:0.95;display:inline"
         id="g9057">
        <path
           d="M 134.28571,325.52305 L 294.28571,232.66591 L 387.14286,324.09448 L 661.42857,352.66591 L 847.14286,272.66591 L 714.28571,162.66591 L 982.85714,34.094483 L 505.71429,59.808768 L 550,246.95163 L 248.57143,128.3802 L 134.28571,325.52305 z "
           style="fill:none;fill-rule:evenodd;stroke:#ffffff;stroke-width:15;stroke-linecap:butt;stroke-linejoin:bevel;stroke-miterlimit:4;stroke-dasharray:none;stroke-opacity:1"
           id="path9059" />
        <path
           d="M 248.57143,131.23734 L 294.28571,234.09448"
           style="fill:none;fill-rule:evenodd;stroke:#ffffff;stroke-width:15;stroke-linecap:butt;stroke-linejoin:miter;stroke-miterlimit:4;stroke-dasharray:none;stroke-opacity:1"
           id="path9061" />
        <path
           d="M 387.14286,325.52305 L 547.14286,244.09448 L 657.14286,349.80877 L 715.71429,164.09448 L 508.57143,64.094482"
           style="fill:none;fill-rule:evenodd;stroke:#ffffff;stroke-width:15;stroke-linecap:butt;stroke-linejoin:bevel;stroke-miterlimit:4;stroke-dasharray:none;stroke-opacity:1"
           id="path9063" />
        <path
           d="M 158.57142 337.66592 A 27.857143 27.857143 0 1 1  102.85714,337.66592 A 27.857143 27.857143 0 1 1  158.57142 337.66592 z"
           transform="translate(4.2857143,-18.571429)"
           style="fill:#e9b96e;fill-opacity:1;stroke:#ffffff;stroke-width:15;stroke-linecap:butt;stroke-linejoin:bevel;stroke-miterlimit:4;stroke-dasharray:none;stroke-opacity:1"
           id="path9065" />
        <path
           d="M 158.57142 337.66592 A 27.857143 27.857143 0 1 1  102.85714,337.66592 A 27.857143 27.857143 0 1 1  158.57142 337.66592 z"
           transform="translate(380.71429,-273.57144)"
           style="fill:#e9b96e;fill-opacity:1;stroke:#ffffff;stroke-width:15;stroke-linecap:butt;stroke-linejoin:bevel;stroke-miterlimit:4;stroke-dasharray:none;stroke-opacity:1"
           id="path9067" />
        <path
           d="M 158.57142 337.66592 A 27.857143 27.857143 0 1 1  102.85714,337.66592 A 27.857143 27.857143 0 1 1  158.57142 337.66592 z"
           transform="translate(579.28572,-176.42858)"
           style="fill:#e9b96e;fill-opacity:1;stroke:#ffffff;stroke-width:15;stroke-linecap:butt;stroke-linejoin:bevel;stroke-miterlimit:4;stroke-dasharray:none;stroke-opacity:1"
           id="path9069" />
        <path
           d="M 158.57142 337.66592 A 27.857143 27.857143 0 1 1  102.85714,337.66592 A 27.857143 27.857143 0 1 1  158.57142 337.66592 z"
           transform="translate(410.71429,-96.428584)"
           style="fill:#e9b96e;fill-opacity:1;stroke:#ffffff;stroke-width:15;stroke-linecap:butt;stroke-linejoin:bevel;stroke-miterlimit:4;stroke-dasharray:none;stroke-opacity:1"
           id="path9071" />
        <path
           d="M 158.57142 337.66592 A 27.857143 27.857143 0 1 1  102.85714,337.66592 A 27.857143 27.857143 0 1 1  158.57142 337.66592 z"
           transform="translate(252.14286,-13.571442)"
           style="fill:#e9b96e;fill-opacity:1;stroke:#ffffff;stroke-width:15;stroke-linecap:butt;stroke-linejoin:bevel;stroke-miterlimit:4;stroke-dasharray:none;stroke-opacity:1"
           id="path9073" />
        <path
           d="M 158.57142 337.66592 A 27.857143 27.857143 0 1 1  102.85714,337.66592 A 27.857143 27.857143 0 1 1  158.57142 337.66592 z"
           transform="translate(162.14286,-102.14287)"
           style="fill:#e9b96e;fill-opacity:1;stroke:#ffffff;stroke-width:15;stroke-linecap:butt;stroke-linejoin:bevel;stroke-miterlimit:4;stroke-dasharray:none;stroke-opacity:1"
           id="path9075" />
        <path
           d="M 158.57142 337.66592 A 27.857143 27.857143 0 1 1  102.85714,337.66592 A 27.857143 27.857143 0 1 1  158.57142 337.66592 z"
           transform="translate(117.85715,-206.42858)"
           style="fill:#e9b96e;fill-opacity:1;stroke:#ffffff;stroke-width:15;stroke-linecap:butt;stroke-linejoin:bevel;stroke-miterlimit:4;stroke-dasharray:none;stroke-opacity:1"
           id="path9077" />
        <path
           d="M 158.57142 337.66592 A 27.857143 27.857143 0 1 1  102.85714,337.66592 A 27.857143 27.857143 0 1 1  158.57142 337.66592 z"
           transform="translate(847.85715,-300.7143)"
           style="fill:#e9b96e;fill-opacity:1;stroke:#ffffff;stroke-width:15;stroke-linecap:butt;stroke-linejoin:bevel;stroke-miterlimit:4;stroke-dasharray:none;stroke-opacity:1"
           id="path9079" />
        <path
           d="M 158.57142 337.66592 A 27.857143 27.857143 0 1 1  102.85714,337.66592 A 27.857143 27.857143 0 1 1  158.57142 337.66592 z"
           transform="translate(714.99997,-67.857153)"
           style="fill:#e9b96e;fill-opacity:1;stroke:#ffffff;stroke-width:15;stroke-linecap:butt;stroke-linejoin:bevel;stroke-miterlimit:4;stroke-dasharray:none;stroke-opacity:1"
           id="path9081" />
        <path
           d="M 158.57142 337.66592 A 27.857143 27.857143 0 1 1  102.85714,337.66592 A 27.857143 27.857143 0 1 1  158.57142 337.66592 z"
           transform="translate(525.00001,12.142844)"
           style="fill:#e9b96e;fill-opacity:1;stroke:#ffffff;stroke-width:15;stroke-linecap:butt;stroke-linejoin:bevel;stroke-miterlimit:4;stroke-dasharray:none;stroke-opacity:1"
           id="path9083" />
      </g>
    </g>
    <rect
       width="1014.2857"
       height="384.28571"
       x="10"
       y="9.8087683"
       style="opacity:1;fill:url(#linearGradient8327);fill-opacity:1;stroke:none;stroke-width:0.30000001;stroke-linecap:butt;stroke-linejoin:bevel;stroke-miterlimit:4;stroke-dasharray:none;stroke-opacity:1"
       id="rect6373" />
  </g>
</svg>
